<?xml version="1.0" standalone="yes"?>

<svg version="1.1" xmlns="http://www.w3.org/2000/svg" xmlns:xlink="http://www.w3.org/1999/xlink" viewBox="0 0 64 8">
 <rect x="1" y="0" width="1" height="4" style="fill: #000000;" />
 <rect x="5" y="2" width="1" height="4" style="fill: #000000;" />
 
 <rect x="9" y="1" width="1" height="4" style="fill: #000000;" />
 <rect x="13" y="3" width="1" height="4" style="fill: #000000;" />
 
 <rect x="17" y="2" width="1" height="4" style="fill: #000000;" />
 <rect x="21" y="4" width="1" height="4" style="fill: #000000;" />
 
 <rect x="25" y="3" width="1" height="4" style="fill: #000000;" />
 <rect x="29" y="5" width="1" height="3" style="fill: #000000;" />
 <rect x="29" y="0" width="1" height="1" style="fill: #000000;" />
 
 <rect x="33" y="4" width="1" height="4" style="fill: #000000;" />
 <rect x="37" y="6" width="1" height="2" style="fill: #000000;" />
 <rect x="37" y="0" width="1" height="2" style="fill: #000000;" />
 
 <rect x="41" y="5" width="1" height="3" style="fill: #000000;" />
 <rect x="41" y="0" width="1" height="1" style="fill: #000000;" />
 <rect x="45" y="7" width="1" height="1" style="fill: #000000;" />
 <rect x="45" y="0" width="1" height="3" style="fill: #000000;" />
 
 <rect x="49" y="6" width="1" height="2" style="fill: #000000;" />
 <rect x="49" y="0" width="1" height="2" style="fill: #000000;" />
 <rect x="53" y="0" width="1" height="4" style="fill: #000000;" />
 
 <rect x="57" y="7" width="1" height="1" style="fill: #000000;" />
 <rect x="57" y="0" width="1" height="3" style="fill: #000000;" />
 <rect x="61" y="1" width="1" height="4" style="fill: #000000;" />
</svg>
